<?xml version="1.0" encoding="UTF-8" standalone="no"?>
<!-- Created with Inkscape (http://www.inkscape.org/) -->

<svg
   width="82.946869mm"
   height="83.872925mm"
   viewBox="0 0 82.946869 83.872925"
   version="1.1"
   id="svg5"
   xml:space="preserve"
   inkscape:export-filename="bitmap.svg"
   inkscape:export-xdpi="96"
   inkscape:export-ydpi="96"
   xmlns:inkscape="http://www.inkscape.org/namespaces/inkscape"
   xmlns:sodipodi="http://sodipodi.sourceforge.net/DTD/sodipodi-0.dtd"
   xmlns="http://www.w3.org/2000/svg"
   xmlns:svg="http://www.w3.org/2000/svg"><sodipodi:namedview
     id="namedview7"
     pagecolor="#505050"
     bordercolor="#eeeeee"
     borderopacity="1"
     inkscape:showpageshadow="0"
     inkscape:pageopacity="0"
     inkscape:pagecheckerboard="0"
     inkscape:deskcolor="#505050"
     inkscape:document-units="mm"
     showgrid="false" /><defs
     id="defs2" /><g
     inkscape:label="Camada 1"
     inkscape:groupmode="layer"
     id="layer1"
     transform="translate(-49.007268,-81.45474)"><path
       style="fill:#000000;stroke-width:0.264583"
       d="m 49.595305,164.91579 -0.588038,-0.41188 v -41.0867 c 0,-39.468107 0.01906,-41.103949 0.483854,-41.524581 0.434261,-0.393001 1.636845,-0.437882 11.732951,-0.437882 10.561923,0 11.275846,0.02956 11.686979,0.483854 0.379056,0.418852 0.437338,1.245271 0.433832,6.151563 -0.0021,3.117239 -0.09152,5.798711 -0.198437,5.958829 -0.494411,0.740447 -1.484815,0.899504 -5.600952,0.899504 h -4.250727 v 28.442713 28.44271 h 4.497917 c 6.035866,0 5.55625,-0.58239 5.55625,6.74687 0,5.33577 -0.03282,5.72136 -0.529166,6.21771 -0.512279,0.51228 -0.881944,0.52917 -11.582795,0.52917 -9.576179,0 -11.132228,-0.0551 -11.641668,-0.41188 z m 58.582025,-0.13649 -0.69714,-0.54837 v -5.65014 -5.65013 l 0.69714,-0.54837 c 0.64077,-0.50404 1.04722,-0.54837 5.02708,-0.54837 h 4.32994 V 123.40863 94.983343 l -4.47091,-0.08357 c -3.95494,-0.07392 -4.53511,-0.141737 -5.02709,-0.587597 -0.53258,-0.482653 -0.55616,-0.747403 -0.55616,-6.242847 0,-5.223656 0.0434,-5.778127 0.48385,-6.176701 0.43425,-0.392989 1.63618,-0.437882 11.72339,-0.437882 9.28938,0 11.32864,0.06516 11.75312,0.375547 0.50459,0.368965 0.51359,1.097269 0.51359,41.560917 0,40.46364 -0.009,41.19194 -0.51359,41.56091 -0.42411,0.31011 -2.43466,0.37555 -11.53984,0.37555 -10.75432,0 -11.04344,-0.0135 -11.72338,-0.54837 z"
       id="path1582" /></g></svg>
